PathFileType	4	(X/Y/Z)	C:/Users/opensim2020/Desktop/walking_exp_matlab/subject03_walking04_straight_03.trc																																																																																																																																																							
DataRate	CameraRate	NumFrames	NumMarkers	Units	OrigDataRate	OrigDataStartFrame	OrigNumFrames																																																																																																																																																			
100	100	4	51	mm	100	2341	256																																																																																																																																																			
Frame#	Time	LFHD			RFHD			LBHD			RBHD			C7			T10			CLAV			STRN			RBAK			LSHO			LUPA			LELB			LFRM			LWRA			LWRB			LFIN			RSHO			RUPA			RELB			RFRM			RWRA			RWRB			RFIN			LASI			RASI			LPSI			RPSI			LTHI			LKNE			LTIB			LANK			LHEE			LTOE			RTHI			RKNE			RTIB			RANK			RHEE			RTOE			*39			*40			*41			*42			*43			*44			*45			*46			*47			*48			*49			*50		
		X1	Y1	Z1	X2	Y2	Z2	X3	Y3	Z3	X4	Y4	Z4	X5	Y5	Z5	X6	Y6	Z6	X7	Y7	Z7	X8	Y8	Z8	X9	Y9	Z9	X10	Y10	Z10	X11	Y11	Z11	X12	Y12	Z12	X13	Y13	Z13	X14	Y14	Z14	X15	Y15	Z15	X16	Y16	Z16	X17	Y17	Z17	X18	Y18	Z18	X19	Y19	Z19	X20	Y20	Z20	X21	Y21	Z21	X22	Y22	Z22	X23	Y23	Z23	X24	Y24	Z24	X25	Y25	Z25	X26	Y26	Z26	X27	Y27	Z27	X28	Y28	Z28	X29	Y29	Z29	X30	Y30	Z30	X31	Y31	Z31	X32	Y32	Z32	X33	Y33	Z33	X34	Y34	Z34	X35	Y35	Z35	X36	Y36	Z36	X37	Y37	Z37	X38	Y38	Z38	X39	Y39	Z39	X40	Y40	Z40	X41	Y41	Z41	X42	Y42	Z42	X43	Y43	Z43	X44	Y44	Z44	X45	Y45	Z45	X46	Y46	Z46	X47	Y47	Z47	X48	Y48	Z48	X49	Y49	Z49	X50	Y50	Z50	X51	Y51	Z51
																																																																																																																																																										
97	0.96	-299.78897	1622.49939	-1259.0614	-321.29688	1631.2876	-1127.59753	-418.4017	1558.25391	-1271.3927	-434.99661	1567.37097	-1141.60657	-442.35834	1413.86389	-1208.37939	-478.44104	1102.67432	-1205.8562	-320.90521	1337.48376	-1194.20679	-278.62143	1171.62671	-1192.21143	-502.8064	1244.45068	-1108.97192	-350.07996	1371.67224	-1354.30359	-363.17639	1172.46057	-1420.38257	-364.89993	1049.58276	-1430.84009	-348.12979	919.74756	-1429.8429	-340.10849	799.5285	-1399.32349	-361.51242	807.3847	-1450.81287	-363.18689	721.34332	-1437.70898	-375.89719	1366.13391	-1040.50037	-361.88641	1144.26379	-968.62805	-333.39624	1034.97998	-957.95764	-289.31659	905.42065	-963.19489	-239.49608	821.20105	-1005.06805	-268.52756	807.26196	-961.34735	-231.33122	743.09167	-976.4483	-299.16	941.24628	-1307.5094	-325.08087	931.06927	-1070.91797	-465.61551	965.78925	-1275.70447	-479.33411	964.55023	-1126.24268	-336.35519	640.12823	-1352.32312	-310.67966	464.77341	-1304.70801	-341.61502	271.98328	-1303.98706	-338.6048	63.42465	-1257.33057	-376.8967	29.07859	-1223.47339	-184.84114	29.03332	-1229.39392	-390.12988	631.18866	-1031.23157	-376.28241	450.94833	-1050.75281	-523.35864	327.06949	-1051.86694	-687.73547	189.43652	-1102.14441	-730.04724	212.24881	-1157.89465	-656.70593	49.48082	-1130.60352	NaN	NaN	NaN	NaN	NaN	NaN	NaN	NaN	NaN	NaN	NaN	NaN	NaN	NaN	NaN	NaN	NaN	NaN	NaN	NaN	NaN	NaN	NaN	NaN	NaN	NaN	NaN	NaN	NaN	NaN	NaN	NaN	NaN	NaN	NaN	NaN
98	0.97	-290.15131	1622.78015	-1259.59119	-311.84415	1631.81763	-1128.17151	-408.8407	1558.85254	-1271.99634	-425.65509	1568.21472	-1142.26599	-433.16339	1414.37781	-1209.15588	-469.06668	1102.86853	-1207.02051	-312.0202	1337.92212	-1194.49548	-269.4631	1172.10217	-1192.4126	-494.33182	1244.37341	-1110.72583	-340.3606	1371.73828	-1354.6626	-351.03134	1172.44983	-1421.04041	-351.24597	1049.51404	-1431.44287	-332.72018	920.08502	-1430.17041	-323.00485	800.10156	-1399.68079	-344.14215	807.49573	-1451.39844	-344.39874	721.49188	-1438.1731	-367.60291	1366.08484	-1040.83423	-354.61508	1143.90552	-969.29901	-326.99332	1034.30432	-958.55121	-284.91974	904.00415	-963.22339	-236.28447	818.7168	-1004.41327	-265.8226	805.52478	-960.9223	-229.81807	740.66766	-975.66473	-289.77042	941.21869	-1307.94592	-316.18365	931.49438	-1071.02588	-456.62061	966.01184	-1276.48572	-470.33432	964.2359	-1127.07178	-329.03912	640.38293	-1352.71472	-305.81281	464.75534	-1305.33643	-338.65311	272.14917	-1304.29712	-338.35995	63.53827	-1257.36377	-377.20514	29.40069	-1223.25281	-184.73097	28.91326	-1229.38025	-376.46967	631.57324	-1031.74109	-357.18536	451.66547	-1050.48914	-504.73041	329.66141	-1052.4165	-670.72681	194.49332	-1102.32935	-713.42957	215.23076	-1158.56775	-637.96057	53.87488	-1126.50061	NaN	NaN	NaN	NaN	NaN	NaN	NaN	NaN	NaN	NaN	NaN	NaN	NaN	NaN	NaN	NaN	NaN	NaN	NaN	NaN	NaN	NaN	NaN	NaN	NaN	NaN	NaN	NaN	NaN	NaN	NaN	NaN	NaN	NaN	NaN	NaN
99	0.98	-280.54398	1622.98425	-1259.86389	-302.42651	1632.12402	-1128.6759	-399.34851	1559.42236	-1272.53625	-416.38989	1568.92175	-1142.86609	-424.0827	1414.98425	-1209.8252	-459.87418	1103.16162	-1208.04126	-303.1666	1338.32056	-1194.71094	-260.44827	1172.46594	-1192.7804	-485.98386	1244.28601	-1112.57605	-330.76309	1371.77295	-1355.10474	-338.91754	1172.49414	-1421.56921	-337.39014	1049.67358	-1432.39014	-316.9935	920.37146	-1430.78101	-305.80612	800.67456	-1399.97876	-326.61462	807.61169	-1451.74451	-325.04095	721.83582	-1438.69409	-359.4957	1366.03967	-1041.10962	-347.34003	1143.47656	-970.01642	-320.49802	1033.57764	-959.1886	-280.52509	902.57831	-963.23041	-233.05762	816.33325	-1003.71698	-263.14709	803.77484	-960.41449	-228.34958	738.07526	-974.80811	-280.56335	941.49921	-1308.43677	-307.20236	931.99542	-1071.33948	-447.70367	966.0575	-1276.83936	-461.30154	964.02484	-1127.6521	-321.20715	640.78485	-1352.99194	-300.86893	464.84091	-1305.57983	-335.75916	272.34106	-1304.4447	-338.13904	63.64864	-1257.34778	-377.32742	29.42521	-1222.78955	-184.56984	28.8479	-1229.33325	-362.5372	632.23334	-1032.06738	-338.1745	452.85202	-1050.26074	-486.06833	332.47122	-1053.03564	-653.07953	198.56789	-1102.22388	-695.85938	217.18156	-1159.51465	-617.66791	57.77679	-1121.96692	NaN	NaN	NaN	NaN	NaN	NaN	NaN	NaN	NaN	NaN	NaN	NaN	NaN	NaN	NaN	NaN	NaN	NaN	NaN	NaN	NaN	NaN	NaN	NaN	NaN	NaN	NaN	NaN	NaN	NaN	NaN	NaN	NaN	NaN	NaN	NaN
100	0.99	-270.94159	1623.28467	-1260.13586	-293.16525	1632.41089	-1129.00903	-389.88608	1559.9657	-1272.98962	-407.14664	1569.52319	-1143.38123	-415.07483	1415.46777	-1210.4989	-450.93808	1103.58789	-1208.77258	-294.40393	1338.71387	-1194.9436	-251.59846	1172.92236	-1192.8363	-477.77197	1244.21143	-1114.40051	-321.33163	1371.8009	-1355.41052	-326.9024	1172.54834	-1422.07202	-323.54465	1049.66895	-1432.87439	-301.14429	920.73187	-1431.2511	-288.42233	801.47089	-1400.19263	-308.83264	807.9389	-1452.10876	-305.15399	722.35089	-1439.23572	-351.45697	1365.90259	-1041.33276	-340.0733	1143.02979	-970.8031	-313.89371	1032.8905	-959.78027	-276.12039	901.16779	-963.14716	-229.98155	813.95569	-1003.0968	-260.46649	802.09796	-959.7962	-226.83662	735.75793	-974.06799	-271.70737	941.93665	-1309.07739	-297.96335	932.60052	-1071.82825	-438.98566	966.45892	-1277.04309	-452.26212	964.06549	-1128.01074	-313.33517	641.03381	-1352.52136	-296.02966	464.33328	-1305.59741	-332.96207	272.40869	-1304.38501	-337.85638	63.87341	-1257.19983	-377.2616	29.56767	-1222.66089	-184.46138	28.72552	-1229.24438	-348.18814	633.04498	-1032.224	-319.15448	454.49243	-1050.10876	-467.17062	335.00134	-1053.41504	-634.28699	201.31206	-1102.01428	-677.4552	217.99004	-1160.24768	-596.20575	60.84646	-1118.03101	NaN	NaN	NaN	NaN	NaN	NaN	NaN	NaN	NaN	NaN	NaN	NaN	NaN	NaN	NaN	NaN	NaN	NaN	NaN	NaN	NaN	NaN	NaN	NaN	NaN	NaN	NaN	NaN	NaN	NaN	NaN	NaN	NaN	NaN	NaN	NaN
